<?xml version="1.0" encoding="UTF-8"?><svg id="Layer_1" xmlns="http://www.w3.org/2000/svg" viewBox="0 0 135 180"><circle cx="66.7" cy="48.5" r="18.5" style="fill:#f16827;"/><path d="M61.9,107c5.7,0,11.3-1.3,16.3-4,0,0,0,0,0,0,4.4-2.4,8.3-5.3,11.7-8.8,3.4-3.4,6.3-7.1,8.7-11.2,2.5-4,4.4-8.1,6-12.1h-24.9c-1.3,2.8-2.9,5.7-4.7,8.7-1.9,2.9-4,5.8-6.3,8.7-2.4,2.8-5,5.5-7.8,8.1-2.9,2.6-5.9,5-9,7.2v-34.5h-21.4v39.4l31.4-1.4Z" style="fill:#3f1c0e;"/><path d="M61.9,112c5.7,0,11.3,1.3,16.3,4s0,0,0,0c4.4,2.4,8.3,5.3,11.7,8.8,3.4,3.4,6.3,7.1,8.7,11.2,2.5,4,4.4,8.1,6,12.1h-24.9c-1.3-2.8-2.9-5.7-4.7-8.7-1.9-2.9-4-5.8-6.3-8.7-2.4-2.8-5-5.5-7.8-8.1-2.9-2.6-5.9-5-9-7.2v34.5h-21.4v-39.4l31.4,1.4Z" style="fill:#3f1c0e;"/></svg>